<?xml version="1.0" encoding="UTF-8" standalone="no"?>
<svg width="172px" height="165px" viewBox="0 0 172 165" version="1.1" xmlns="http://www.w3.org/2000/svg" xmlns:xlink="http://www.w3.org/1999/xlink">
    <!-- Generator: Sketch 3.8.3 (29802) - http://www.bohemiancoding.com/sketch -->
    <title>Page 1 Copy</title>
    <desc>Created with Sketch.</desc>
    <defs>
        <polygon id="path-1" points="171.457903 0.000299999999 171.457903 164.6964 0 164.6964 0 0.000299999999"></polygon>
    </defs>
    <g id="Page-1" stroke="none" stroke-width="1" fill="none" fill-rule="evenodd">
        <g id="Page-1-Copy">
            <mask id="mask-2" fill="white">
                <use xlink:href="#path-1"></use>
            </mask>
            <g id="Clip-2"></g>
            <path d="M100.710033,156.8829 C100.710033,152.5731 97.2445297,149.0691 92.9842676,149.0691 L15.4496331,149.0691 L15.4496331,7.8135 C15.4496331,5.8275 17.0468607,4.2111 19.0106262,4.2111 C20.9737986,4.2111 22.5716193,5.8275 22.5716193,7.8135 L22.5716193,141.8643 L92.9842676,141.8643 C97.2445297,141.8643 100.710033,138.3609 100.710033,134.0511 C100.710033,129.7413 97.2445297,126.2373 92.9842676,126.2373 L38.0189986,126.2373 L38.0189986,0.000299999999 L33.8560055,0.000299999999 L33.8560055,130.4487 L92.9842676,130.4487 C94.9498124,130.4487 96.5476331,132.0645 96.5476331,134.0511 C96.5476331,136.0371 94.9498124,137.6535 92.9842676,137.6535 L26.7340193,137.6535 L26.7340193,7.8135 C26.7340193,3.5037 23.2685159,0.000299999999 19.0106262,0.000299999999 C14.7521434,0.000299999999 11.28664,3.5037 11.28664,7.8135 L11.28664,153.2805 L92.9842676,153.2805 C94.9498124,153.2805 96.5476331,154.8969 96.5476331,156.8829 C96.5476331,158.8689 94.9498124,160.4853 92.9842676,160.4853 L4.16287448,160.4853 L4.16287448,0.000299999999 L-0.000118620689,0.000299999999 L-0.000118620689,164.6967 L92.9842676,164.6967 C97.2445297,164.6967 100.710033,161.1927 100.710033,156.8829 L100.710033,156.8829 Z M149.991592,108.0405 L171.458378,108.0405 L171.458378,103.8663 L149.991592,103.8663 L149.991592,108.0405 Z M135.51453,100.9959 L135.51453,80.9517 L139.603978,80.9517 L139.603978,88.1073 L143.258681,88.1073 L143.258681,92.2815 L139.603978,92.2815 L139.603978,100.8885 C139.603978,101.4849 139.685233,101.9829 139.847743,102.3897 C140.010254,102.7929 140.205385,103.1097 140.44144,103.3317 C140.676902,103.5579 141.002516,103.7343 141.417095,103.8621 C141.831674,103.9851 142.205923,104.0637 142.542806,104.0883 C142.87613,104.1129 143.315619,104.1249 143.855937,104.1249 L143.855937,107.7975 C143.28715,107.8881 142.737937,107.9289 142.201771,107.9289 C140.518543,107.9289 139.075523,107.5017 137.876268,106.6419 C136.303357,105.5151 135.51453,103.6317 135.51453,100.9959 L135.51453,100.9959 Z M116.163343,103.3521 L119.218419,101.3451 C119.836433,102.4515 120.732612,103.2453 121.90933,103.7385 C122.600888,104.0307 123.246778,104.1789 123.854709,104.1789 C124.277592,104.1789 124.677937,104.1045 125.053964,103.9563 C125.986916,103.6155 126.478599,102.9447 126.525454,101.9541 C126.525454,101.3289 126.250847,100.8639 125.702226,100.5555 C125.153606,100.2513 124.425868,99.9963 123.519606,99.8031 C122.854737,99.6795 122.267564,99.5481 121.753343,99.4083 C121.240902,99.2643 120.645426,99.0381 119.970474,98.7255 C119.293743,98.4129 118.732668,98.0595 118.285468,97.6605 C117.838268,97.2615 117.46224,96.7227 117.153233,96.0405 C116.846599,95.3619 116.691799,94.6053 116.691799,93.7701 C116.691799,91.7883 117.415385,90.3075 118.862557,89.3247 C120.30973,88.3419 121.980502,87.8487 123.870723,87.8487 C126.208143,87.8487 128.304171,88.7697 130.15584,90.6117 L127.682006,93.3303 C126.588323,92.2239 125.192157,91.6689 123.494695,91.6563 L123.44013,91.6563 C121.769357,91.6563 120.858943,92.2485 120.714226,93.4371 C120.59264,94.7367 121.761054,95.5923 124.222433,95.9949 C126.112654,96.3243 127.645233,96.9165 128.820171,97.7715 C129.99333,98.6271 130.594737,99.9963 130.619054,101.8881 C130.619054,103.3479 130.216337,104.5857 129.415647,105.6015 C128.614957,106.6131 127.596599,107.2833 126.362943,107.6169 C125.454309,107.8635 124.527288,107.9865 123.582474,107.9865 C123.255081,107.9865 122.915826,107.9661 122.564116,107.9289 C121.242681,107.8179 119.994792,107.3535 118.818074,106.5351 C117.643137,105.7167 116.758819,104.6559 116.163343,103.3521 L116.163343,103.3521 Z M100.513123,96.3609 L107.602488,96.3609 L107.602488,94.4241 C107.602488,93.7371 107.354571,93.1575 106.854585,92.6889 C106.356971,92.2155 105.754971,91.9359 105.052143,91.8375 C104.722378,91.7883 104.389054,91.7631 104.049799,91.7631 C103.671992,91.7631 103.301895,91.7961 102.938323,91.8537 C102.244985,91.9647 101.661371,92.2611 101.188074,92.7423 C100.714185,93.2277 100.488806,93.8115 100.513123,94.4979 L100.513123,96.3609 Z M96.4236745,101.3289 L96.4236745,94.4691 C96.4236745,92.3349 97.1697986,90.6861 98.6638262,89.5221 C100.157261,88.3581 101.94013,87.7743 104.013026,87.7743 C106.049743,87.7743 107.816006,88.3623 109.308254,89.5383 C110.802281,90.7191 111.547812,92.3841 111.547812,94.5393 L111.547812,99.9141 L100.513123,99.9141 L100.513123,101.4315 C100.488806,102.4431 100.95024,103.2081 101.897426,103.7265 C102.505357,104.0637 103.155399,104.2323 103.848737,104.2323 C104.236626,104.2323 104.636971,104.1789 105.052143,104.0715 C106.206323,103.7799 107.03133,103.1385 107.529537,102.1347 L110.948185,104.0883 C110.231123,105.3465 109.23293,106.3173 107.954199,107.0079 C106.673688,107.6949 105.358778,108.0399 104.013026,108.0399 C101.964447,108.0399 100.188102,107.4483 98.6816193,106.2675 C97.1757297,105.0831 96.4236745,103.4385 96.4236745,101.3289 L96.4236745,101.3289 Z M80.6328883,96.3609 L87.7222538,96.3609 L87.7222538,94.4241 C87.7222538,93.7371 87.4743366,93.1575 86.9743503,92.6889 C86.4761434,92.2155 85.8747366,91.9359 85.1713159,91.8375 C84.8421434,91.7883 84.5088193,91.7631 84.1695641,91.7631 C83.7911641,91.7631 83.4216607,91.7961 83.0574952,91.8537 C82.3647503,91.9647 81.7811366,92.2611 81.30784,92.7423 C80.8339503,93.2277 80.608571,93.8115 80.6328883,94.4979 L80.6328883,96.3609 Z M76.54344,101.3289 L76.54344,94.4691 C76.54344,92.3349 77.288971,90.6861 78.7829986,89.5221 C80.2770262,88.3581 82.0598952,87.7743 84.1327917,87.7743 C86.169509,87.7743 87.935771,88.3623 89.4274262,89.5383 C90.9214538,90.7191 91.6675779,92.3841 91.6675779,94.5393 L91.6675779,99.9141 L80.6328883,99.9141 L80.6328883,101.4315 C80.608571,102.4431 81.0700055,103.2081 82.0171917,103.7265 C82.6245297,104.0637 83.2751641,104.2323 83.9685021,104.2323 C84.3563917,104.2323 84.7567366,104.1789 85.1713159,104.0715 C86.3260883,103.7799 87.1510952,103.1385 87.6493021,102.1347 L91.0679503,104.0883 C90.3502952,105.3465 89.3526952,106.3173 88.0739641,107.0079 C86.7934538,107.6949 85.4785434,108.0399 84.1327917,108.0399 C82.0842124,108.0399 80.3078676,107.4483 78.8013848,106.2675 C77.2954952,105.0831 76.54344,103.4385 76.54344,101.3289 L76.54344,101.3289 Z M56.4259641,107.6169 L56.4259641,80.9517 L60.7508745,80.9517 L60.7508745,103.2411 L72.730971,103.2411 L72.730971,107.6169 L56.4259641,107.6169 Z M156.352033,76.7409 L156.352033,58.5189 C157.746419,57.8199 159.299164,57.3513 161.019164,57.1209 C161.754612,57.0219 162.48235,56.9727 163.197633,56.9727 C164.144819,56.9727 165.063537,57.0591 165.950226,57.2319 C167.507123,57.5361 168.816102,58.2597 169.873012,59.3991 C170.929923,60.5379 171.458378,62.0307 171.458378,63.8691 L171.458378,76.7409 L167.36893,76.7409 L167.36893,63.9063 C167.319702,62.8737 166.864792,62.0925 166.003012,61.5495 C165.177412,61.0359 164.258695,60.7809 163.251012,60.7809 L163.104516,60.7809 C162.047606,60.8055 161.161509,61.0437 160.441481,61.4961 L160.441481,76.7409 L156.352033,76.7409 Z M140.384502,65.4855 L147.473868,65.4855 L147.473868,63.5481 C147.473868,62.8617 147.22595,62.2815 146.725964,61.8129 C146.23013,61.3401 145.628723,61.0605 144.92115,60.9615 C144.59613,60.9123 144.258654,60.8877 143.921178,60.8877 C143.542778,60.8877 143.173274,60.9207 142.80733,60.9783 C142.116364,61.0893 141.530971,61.3851 141.059454,61.8663 C140.583785,62.3517 140.360185,62.9355 140.384502,63.6225 L140.384502,65.4855 Z M136.295054,70.4529 L136.295054,63.5937 C136.295054,61.4595 137.038806,59.8101 138.534612,58.6467 C140.026861,57.4827 141.811509,56.8989 143.884406,56.8989 C145.921123,56.8989 147.689757,57.4869 149.181412,58.6629 C150.673068,59.8431 151.417412,61.5087 151.417412,63.6633 L151.417412,69.0381 L140.384502,69.0381 L140.384502,70.5561 C140.360185,71.5677 140.823399,72.3327 141.770585,72.8505 C142.376143,73.1877 143.026778,73.3563 143.717743,73.3563 C144.108006,73.3563 144.510723,73.3029 144.92115,73.1961 C146.075923,72.9039 146.905081,72.2625 147.400916,71.2593 L150.819564,73.2123 C150.104281,74.4711 149.104309,75.4413 147.823799,76.1325 C146.543288,76.8189 145.230157,77.1645 143.884406,77.1645 C141.835826,77.1645 140.059481,76.5723 138.551219,75.3921 C137.047109,74.2077 136.295054,72.5625 136.295054,70.4529 L136.295054,70.4529 Z M115.322323,57.2319 L119.649606,57.2319 L123.521978,68.6151 L124.139399,72.4929 L124.412226,72.4929 L125.084806,68.6151 L128.845081,57.2319 L133.194902,57.2319 L126.338626,76.7409 L122.139454,76.7409 L115.322323,57.2319 Z M96.3851228,70.3419 L96.3851228,57.2319 L100.47635,57.2319 L100.47635,70.4325 C100.501261,71.2059 100.767564,71.8473 101.275261,72.3651 C101.78533,72.8793 102.397412,73.2249 103.112695,73.3935 C103.57235,73.5045 104.052171,73.5537 104.548006,73.5417 C104.814309,73.5417 105.086543,73.5291 105.367081,73.5045 C106.165992,73.4181 106.856957,73.2123 107.438199,72.8793 L107.438199,57.2319 L111.529426,57.2319 L111.529426,75.4989 C109.889495,76.2189 108.200337,76.6959 106.462543,76.9257 C105.673716,77.0247 104.91395,77.0781 104.18384,77.0907 C103.285881,77.0907 102.417578,77.0121 101.578337,76.8519 C100.059992,76.5723 98.8162538,75.8733 97.8423779,74.7669 C96.8708745,73.6563 96.3851228,72.1803 96.3851228,70.3419 L96.3851228,70.3419 Z M80.6328883,65.4855 L87.7222538,65.4855 L87.7222538,63.5481 C87.7222538,62.8617 87.4743366,62.2815 86.9743503,61.8129 C86.4761434,61.3401 85.8747366,61.0605 85.1713159,60.9615 C84.8421434,60.9123 84.5088193,60.8877 84.1695641,60.8877 C83.7911641,60.8877 83.4216607,60.9207 83.0574952,60.9783 C82.3647503,61.0893 81.7811366,61.3851 81.30784,61.8663 C80.8339503,62.3517 80.608571,62.9355 80.6328883,63.6225 L80.6328883,65.4855 Z M76.54344,70.4529 L76.54344,63.5937 C76.54344,61.4595 77.288971,59.8101 78.7829986,58.6467 C80.2770262,57.4827 82.0598952,56.8989 84.1327917,56.8989 C86.169509,56.8989 87.935771,57.4869 89.4274262,58.6629 C90.9214538,59.8431 91.6675779,61.5087 91.6675779,63.6633 L91.6675779,69.0381 L80.6328883,69.0381 L80.6328883,70.5561 C80.608571,71.5677 81.0700055,72.3327 82.0171917,72.8505 C82.6245297,73.1877 83.2751641,73.3563 83.9685021,73.3563 C84.3563917,73.3563 84.7567366,73.3029 85.1713159,73.1961 C86.3260883,72.9039 87.1510952,72.2625 87.6493021,71.2593 L91.0679503,73.2123 C90.3502952,74.4711 89.3526952,75.4413 88.0739641,76.1325 C86.7934538,76.8189 85.4785434,77.1645 84.1327917,77.1645 C82.0842124,77.1645 80.3078676,76.5723 78.8013848,75.3921 C77.2954952,74.2077 76.54344,72.5625 76.54344,70.4529 L76.54344,70.4529 Z M56.4259641,76.7409 L56.4259641,50.0763 L60.7508745,50.0763 L60.7508745,72.3651 L72.730971,72.3651 L72.730971,76.7409 L56.4259641,76.7409 Z" id="Fill-1" fill="#FFFFFF" mask="url(#mask-2)"></path>
        </g>
    </g>
</svg>