<svg id="Layer_1" data-name="Layer 1" xmlns="http://www.w3.org/2000/svg" viewBox="0 0 50 50"><defs><style>.cls-1{fill:#16c4b3;}.cls-2{fill:#fff;}</style></defs><title>Artboard 11</title><rect class="cls-1" width="50" height="50" rx="11.91" ry="11.91"/><path class="cls-2" d="M34.09,42.46H14.26V7.75h.89V41.57H34.09a.76.76,0,1,0,0-1.52H16.67V9.4A1.65,1.65,0,0,1,20,9.4V36.76H34.09a.76.76,0,1,0,0-1.52H21.48V7.75h.89v26.6H34.09a1.65,1.65,0,1,1,0,3.29h-15V9.4a.76.76,0,1,0-1.52,0V39.16H34.09a1.65,1.65,0,1,1,0,3.29Z"/></svg>