<svg id="Layer_1" data-name="Layer 1" xmlns="http://www.w3.org/2000/svg" viewBox="0 0 167.96 297.26"><defs><style>.cls-1{fill:#d8d8d8;}.cls-2{fill:#efefef;}</style></defs><title>Artboard 2</title><path class="cls-1" d="M154.46,104.72c0,.14,0,7-.8,17.59l14.3,1.85V34.46c-3.46,0-8.09.08-13.5.25Z"/><path class="cls-1" d="M147.19,121.47c.73-10.05.78-16.49.78-16.75V35c-10.24.46-22.41,1.32-34.67,2.92L99.43,115.28Z"/><path class="cls-1" d="M148.54,162.24,168,151.93V130.65l-14.82-1.92C152.28,138.29,150.87,149.93,148.54,162.24Z"/><path class="cls-1" d="M168,28V0h-13.5V28.26C159.85,28.1,164.47,28,168,28Z"/><path class="cls-1" d="M11.7,297.26H59.05l-8.67-17.35C35.26,287.27,21.71,293.14,11.7,297.26Z"/><path class="cls-1" d="M86.33,151.61l.05-.28,5.47-30.56-60.63-7.87c1.21,47.87,25.57,85,32.34,94.42l22.76-12.08Z"/><polygon class="cls-1" points="92.82 191.81 135.58 169.12 92.82 156.24 92.82 191.81"/><path class="cls-1" d="M27.35,233.86,0,248.37V295c9.65-3.78,27.14-11,47.5-20.88Z"/><polygon class="cls-1" points="0 196.91 0 241.07 23.86 228.41 0 196.91"/><path class="cls-1" d="M122.82,230.95c-.49,5.87-2.84,38.39,3.35,62,15.5-8.34,33-18.45,41.79-25.69v-108L146.84,170.5C141.27,195.93,133.23,216.14,122.82,230.95Z"/><path class="cls-1" d="M93.28,149.65l48.21,14.52a343.83,343.83,0,0,0,5.18-36.28L98.3,121.62Z"/><path class="cls-1" d="M139.18,174.59,64.31,214.49h0L33.2,231.07l20.11,40.22c14.37-7.18,29.89-15.61,44.92-25.08C120.06,232.45,132.31,203,139.18,174.59Z"/><polygon class="cls-1" points="23.8 0 0 0 0 43.01 32.26 9.55 23.8 0"/><path class="cls-1" d="M57.78,210.41c-7.93-11.06-32.16-48.83-33.06-98.34L0,108.86v77.33l29.65,39.14Z"/><path class="cls-1" d="M168,297.26V275.39c-9.57,7-23.72,15.14-36.13,21.87Z"/><polygon class="cls-1" points="0 63.73 0 102.38 22.13 105.25 0 63.73"/><path class="cls-1" d="M115.55,259.51c-.21-7.59,0-14.47.19-19.73a68.92,68.92,0,0,1-14,11.85c-15.24,9.6-31,18.15-45.53,25.41L66.3,297.26h51.8l2.2-1.16C117.54,286.34,115.95,274.11,115.55,259.51Z"/><path class="cls-1" d="M135.25,29.23c4.45-.32,8.72-.55,12.71-.72V0H120.08l-5.59,31.22Q124.25,30,135.25,29.23Z"/><path class="cls-1" d="M69.27,41.55c10.09-4,23-7.15,38.46-9.41L113.49,0H45.73L40.61,9.21Z"/><polygon class="cls-1" points="38.31 0 32.44 0 36.05 4.07 38.31 0"/><path class="cls-1" d="M106.53,38.84C93.12,40.91,80,43.93,69.65,48.35a52.17,52.17,0,0,0-12.74,7.39,69.59,69.59,0,0,0-25.74,50.69l61.82,8Z"/><path class="cls-1" d="M52.75,50.8a53.2,53.2,0,0,1,10.31-6.51L36.56,14.4.82,51.47,25.45,97.71C27.35,85.72,33.48,66.73,52.75,50.8Z"/><path class="cls-2" d="M122.82,230.95a87.71,87.71,0,0,1-7.07,8.83c-.24,5.27-.4,12.14-.19,19.73.4,14.6,2,26.83,4.75,36.59,1.91-1,3.87-2,5.87-3.13C120,269.34,122.32,236.82,122.82,230.95Z"/><path class="cls-2" d="M153.14,128.73,168,130.65v-6.49l-14.3-1.85C153.51,124.32,153.34,126.47,153.14,128.73Z"/><path class="cls-2" d="M93,114.44l-61.82-8c0,.87,0,1.53,0,2l0,.05v.8c0,1.23,0,2.45.05,3.67l60.63,7.87Z"/><path class="cls-2" d="M24.68,110l-2.56-4.8L0,102.38v6.49l24.71,3.21C24.7,111.4,24.69,110.72,24.68,110Z"/><path class="cls-2" d="M98.3,121.62l48.36,6.27c.21-2.27.38-4.42.52-6.42l-47.75-6.2Z"/><path class="cls-2" d="M147.92,165.39c-.35,1.73-.71,3.43-1.08,5.11L168,159.25v-7.32l-19.42,10.31Q148.24,163.81,147.92,165.39Z"/><path class="cls-2" d="M50.38,279.91l8.67,17.35H66.3L56.19,277Q53.25,278.52,50.38,279.91Z"/><path class="cls-2" d="M135.58,169.12,92.82,191.81v5.56a3.25,3.25,0,0,1-6.49,0v-2.11L63.56,207.34c1.06,1.47,1.69,2.27,1.73,2.33a3.2,3.2,0,0,1-.52,4.52,3.27,3.27,0,0,1-.47.31l74.88-39.91q.5-2.05,1-4.09Z"/><path class="cls-2" d="M47.5,274.15q2.87-1.4,5.81-2.87L33.2,231.07l31.1-16.58a3.27,3.27,0,0,1-4.09-.83c-.21-.26-1.09-1.37-2.44-3.25L29.65,225.34l1.85,2.44a3.2,3.2,0,0,1-.65,4.5,3.27,3.27,0,0,1-4.55-.64l-2.44-3.23L0,241.08v7.3l27.35-14.52Z"/><path class="cls-2" d="M148,104.72c0,.26,0,6.7-.78,16.75l6.47.84c.77-10.63.8-17.45.8-17.59v-70c-2.06.07-4.23.15-6.49.25Z"/><path class="cls-2" d="M141.48,164.17l2.18.66,4.88-2.59c2.33-12.31,3.75-24,4.6-33.51l-6.47-.84A343.83,343.83,0,0,1,141.48,164.17Z"/><path class="cls-2" d="M154.46,28.26V0H148V28.5C150.23,28.4,152.4,28.32,154.46,28.26Z"/><path class="cls-2" d="M47.5,274.15C27.14,284.06,9.65,291.25,0,295v2.23H11.7c10-4.12,23.56-10,38.68-17.35Z"/><path class="cls-2" d="M120,226.51A3.22,3.22,0,0,1,122.9,230s0,.36-.08.93c10.42-14.81,18.46-35,24-60.45l-7.66,4.08c-6.87,28.46-19.12,57.87-41,71.62-15,9.47-30.55,17.9-44.92,25.08L56.19,277c14.56-7.27,30.29-15.81,45.53-25.41a68.92,68.92,0,0,0,14-11.85c.28-6.14.66-10.09.69-10.39A3.23,3.23,0,0,1,120,226.51Z"/><path class="cls-2" d="M122.9,230a3.25,3.25,0,0,0-6.46-.63c0,.3-.41,4.24-.69,10.39a87.71,87.71,0,0,0,7.07-8.83C122.87,230.38,122.9,230.06,122.9,230Z"/><path class="cls-2" d="M146.66,127.89l6.47.84c.2-2.26.38-4.41.52-6.42l-6.47-.84C147,123.47,146.87,125.62,146.66,127.89Z"/><path class="cls-2" d="M47.5,274.15l2.88,5.76q2.87-1.4,5.81-2.87l-2.88-5.76Q50.37,272.75,47.5,274.15Z"/><path class="cls-2" d="M144.95,165.22a3.21,3.21,0,0,1,2.16,4,3.26,3.26,0,0,1-4.05,2.14l-2.92-.88q-.46,2-1,4.09l7.66-4.08c.37-1.68.73-3.38,1.08-5.11q.32-1.58.61-3.15l-4.88,2.59Z"/><polygon class="cls-2" points="29.65 225.34 0 186.19 0 196.91 23.86 228.41 29.65 225.34"/><path class="cls-2" d="M26.3,231.64a3.27,3.27,0,0,0,4.55.64,3.2,3.2,0,0,0,.65-4.5l-1.85-2.44-5.79,3.07Z"/><path class="cls-2" d="M99.43,115.28,113.3,37.88q-3.39.44-6.77,1L93,114.44Z"/><path class="cls-2" d="M114.49,31.22,120.08,0h-6.6l-5.76,32.13C109.94,31.81,112.18,31.5,114.49,31.22Z"/><path class="cls-2" d="M88.63,155a3.21,3.21,0,0,1-2.16-4,3.25,3.25,0,0,1,4.05-2.14l2.76.83,5-28-6.45-.84-5.47,30.56-.05.28v43.64l6.49-3.45V156.24Z"/><polygon class="cls-2" points="99.44 115.28 92.99 114.44 91.85 120.78 98.3 121.62 99.44 115.28"/><path class="cls-2" d="M86.33,197.37a3.25,3.25,0,0,0,6.49,0v-5.56l-6.49,3.45Z"/><path class="cls-2" d="M92.82,152.18v4.06l42.75,12.88,5.49-2.91c.14-.68.28-1.36.42-2L93.28,149.65Z"/><path class="cls-2" d="M135.58,169.12l4.56,1.37q.48-2.15.93-4.29Z"/><path class="cls-2" d="M143.66,164.83l-2.18-.66c-.14.68-.28,1.35-.42,2Z"/><path class="cls-2" d="M140.14,170.49l2.92.88a3.26,3.26,0,0,0,4.05-2.14,3.21,3.21,0,0,0-2.16-4l-1.29-.39-2.59,1.38Q140.62,168.34,140.14,170.49Z"/><path class="cls-2" d="M86.47,151a3.21,3.21,0,0,0,2.16,4l4.19,1.26v-4.06l.45-2.53-2.76-.83A3.25,3.25,0,0,0,86.47,151Z"/><path class="cls-2" d="M126.17,293q.58,2.2,1.25,4.28h4.4c12.41-6.73,26.56-14.88,36.13-21.87v-8.11C159.18,274.53,141.67,284.65,126.17,293Z"/><path class="cls-2" d="M120.3,296.11l-2.2,1.16h2.53C120.51,296.88,120.41,296.49,120.3,296.11Z"/><path class="cls-2" d="M120.63,297.26h6.8q-.68-2.08-1.25-4.28c-2,1.08-4,2.12-5.87,3.13C120.41,296.49,120.51,296.88,120.63,297.26Z"/><path class="cls-2" d="M24.67,105.58a66.07,66.07,0,0,1,.79-7.87L.82,51.47,0,52.32V63.73l22.13,41.52Z"/><path class="cls-2" d="M64.31,214.49h0Z"/><path class="cls-2" d="M31.23,112.91l-6.52-.85c.9,49.51,25.14,87.29,33.06,98.34l5.79-3.07C56.8,197.92,32.43,160.78,31.23,112.91Z"/><path class="cls-2" d="M31.18,109.24v-.8l0-.05c0,.38,0,.6,0,.63a3.23,3.23,0,0,1-3,3.43h-.23a3.23,3.23,0,0,1-3.23-3c0-.26-.1-1.65,0-3.89l-2.54-.33,2.56,4.8c0,.68,0,1.35,0,2l6.52.85C31.2,111.7,31.18,110.47,31.18,109.24Z"/><path class="cls-2" d="M64.77,214.18a3.2,3.2,0,0,0,.52-4.52c0-.06-.68-.86-1.73-2.33l-5.79,3.07c1.35,1.88,2.23,3,2.44,3.25a3.27,3.27,0,0,0,4.09.83h0A3.27,3.27,0,0,0,64.77,214.18Z"/><path class="cls-2" d="M31.17,106.42A69.59,69.59,0,0,1,56.91,55.73a52.17,52.17,0,0,1,12.74-7.39c10.37-4.42,23.47-7.44,36.89-9.5l1.2-6.71c-15.49,2.26-28.36,5.41-38.46,9.41l1.53,1.72a3.19,3.19,0,0,1-.3,4.54,3.27,3.27,0,0,1-4.58-.29l-2.86-3.23A53.2,53.2,0,0,0,52.75,50.8C33.48,66.73,27.35,85.72,25.45,97.71L30,106.27Z"/><path class="cls-2" d="M154.46,34.71c5.41-.17,10-.23,13.5-.25V28c-3.48,0-8.1.07-13.5.23Z"/><path class="cls-2" d="M148,35V28.5c-4,.17-8.26.41-12.71.72q-11,.78-20.76,2l-1.19,6.67C125.56,36.28,137.72,35.42,148,35Z"/><path class="cls-2" d="M31.17,106.42,30,106.27l1.13,2.12C31.14,108,31.14,107.29,31.17,106.42Z"/><path class="cls-2" d="M154.46,34.71V28.26c-2.06.06-4.23.14-6.49.24V35C150.23,34.86,152.4,34.78,154.46,34.71Z"/><path class="cls-2" d="M113.3,37.88l1.19-6.67c-2.31.29-4.55.6-6.76.92l-1.2,6.71Q109.91,38.32,113.3,37.88Z"/><path class="cls-2" d="M25.45,97.71a66.07,66.07,0,0,0-.79,7.87l5.35.69Z"/><path class="cls-2" d="M24.69,109.47a3.23,3.23,0,0,0,3.23,3h.23a3.23,3.23,0,0,0,3-3.43s0-.25,0-.63L30,106.27l-5.35-.69C24.59,107.82,24.67,109.21,24.69,109.47Z"/><path class="cls-2" d="M67.08,42.44c.71-.3,1.46-.6,2.2-.89L40.61,9.21l-1.3,2.34L36.56,14.4l26.5,29.89Q65,43.34,67.08,42.44Z"/><polygon class="cls-2" points="34.02 7.72 36.05 4.07 32.44 0 23.8 0 32.26 9.55 34.02 7.72"/><path class="cls-2" d="M63.06,44.29l2.86,3.23a3.27,3.27,0,0,0,4.58.29,3.19,3.19,0,0,0,.3-4.54l-1.53-1.72c-.74.29-1.48.59-2.2.89Q65,43.33,63.06,44.29Z"/><polygon class="cls-2" points="0.81 51.48 36.56 14.4 32.26 9.55 0 43.01 0 49.95 0.81 51.48"/><polygon class="cls-2" points="40.61 9.21 45.73 0 38.31 0 36.05 4.07 40.61 9.21"/><polygon class="cls-2" points="0 52.32 0.81 51.48 0 49.95 0 52.32"/><polygon class="cls-2" points="40.61 9.21 36.05 4.07 34.02 7.72 32.26 9.55 36.56 14.4 39.3 11.56 40.61 9.21"/></svg>